<?xml version="1.0" encoding="utf-8"?>
<svg viewBox="-26.2704 142.841 862.7816 140.6063" width="862.7816" height="140.6063"
    xmlns="http://www.w3.org/2000/svg">
    <g transform="matrix(0.4322250187397003, 0, 0, 0.4322250187397003, -27.104585647583008, 143.33985900878906)" style="">
        <svg viewBox="0 0 396 64" data-background-color="#ffffff" preserveAspectRatio="xMidYMid meet" height="323" width="2000"
            xmlns="http://www.w3.org/2000/svg">
            <g id="tight-bounds" transform="matrix(1,0,0,1,0.23999979558800533,-0.22867508480374)">
                <svg viewBox="0 0 395.52 64.4573501696075" height="64.4573501696075" width="395.52">
                    <g>
                        <svg viewBox="0 0 506.2581984882554 82.50420200291296" height="64.4573501696075" width="395.52">
                            <g transform="matrix(1,0,0,1,110.7381984882554,11.402534430214455)">
                                <svg viewBox="0 0 395.52 59.69913314248405" height="59.69913314248405" width="395.52">
                                    <g id="textblocktransform">
                                        <svg viewBox="0 0 395.52 59.69913314248405" height="59.69913314248405" width="395.52" id="textblock">
                                            <g>
                                                <svg viewBox="0 0 395.52 59.69913314248405" height="59.69913314248405" width="395.52">
                                                    <g transform="matrix(1,0,0,1,0,0)">
                                                        <svg width="395.52" viewBox="1.51 -36.82 252.32892822732794 38.28" height="59.69913314248405" data-palette-color="#4a596d">
                                                            <g class="wordmark-text-0" data-fill-palette-color="primary" id="text-0">
                                                                <path d="M24.76-6.74L24.76-6.74Q24.76-5.52 23.75-4.44 22.75-3.37 21.17-2.49 19.58-1.61 17.63-0.95 15.67-0.29 13.77 0.17 11.87 0.63 10.18 0.88 8.5 1.12 7.52 1.12L7.52 1.12Q6.59 1.12 5.54 0.95 4.49 0.78 3.81 0.2L3.81 0.2Q3.42-0.1 3.13-1.12 2.83-2.15 2.56-3.56 2.29-4.98 2.1-6.62 1.9-8.25 1.78-9.81 1.66-11.38 1.59-12.7 1.51-14.01 1.51-14.75L1.51-14.75Q1.51-15.97 1.59-17.7 1.66-19.43 1.81-21.41 1.95-23.39 2.2-25.44 2.44-27.49 2.76-29.32 3.08-31.15 3.54-32.62 4-34.08 4.54-34.91L4.54-34.91Q5.47-36.23 6.88-36.23L6.88-36.23Q7.86-36.23 8.54-35.57 9.23-34.91 9.64-33.86 10.06-32.81 10.28-31.52 10.5-30.22 10.6-28.96 10.69-27.69 10.69-26.61 10.69-25.54 10.69-24.9L10.69-24.9Q10.69-21.09 10.52-17.36 10.35-13.62 10.35-9.81L10.35-9.81 10.35-7.91Q12.55-8.59 15.14-9.2 17.72-9.81 20.07-9.81L20.07-9.81Q20.9-9.81 21.75-9.72 22.61-9.62 23.27-9.3 23.93-8.98 24.34-8.37 24.76-7.76 24.76-6.74ZM47.36-13.96L47.36-13.96Q47.36-11.28 46.82-8.64 46.29-6.01 45.02-3.93 43.75-1.86 41.62-0.59 39.5 0.68 36.33 0.68L36.33 0.68Q33.2 0.68 31.1-0.56 29-1.81 27.76-3.86 26.51-5.91 26-8.5 25.49-11.08 25.49-13.77L25.49-13.77Q25.49-16.7 26.17-19.58L26.17-19.58Q26.32-20.36 26.73-21.75 27.15-23.14 27.81-24.49 28.46-25.83 29.32-26.81 30.17-27.78 31.2-27.78L31.2-27.78Q32.18-27.78 32.76-27.25 33.35-26.71 33.69-25.9 34.03-25.1 34.13-24.19 34.23-23.29 34.23-22.56L34.23-22.56Q34.23-21.44 34.06-20.36 33.88-19.29 33.69-18.21L33.69-18.21Q33.49-16.75 33.32-15.28 33.15-13.82 33.15-12.35L33.15-12.35Q33.15-11.62 33.23-10.72 33.3-9.81 33.59-8.98 33.88-8.15 34.42-7.59 34.96-7.03 35.94-7.03L35.94-7.03Q37.2-7.03 37.96-7.71 38.72-8.4 39.08-9.42 39.45-10.45 39.55-11.62 39.65-12.79 39.65-13.77L39.65-13.77Q39.65-15.92 39.35-17.99 39.06-20.07 38.82-22.22L38.82-22.22Q38.77-22.46 38.77-22.9L38.77-22.9Q38.77-23.63 39.01-24.37 39.26-25.1 39.69-25.68 40.13-26.27 40.77-26.64 41.4-27 42.19-27L42.19-27Q43.26-27 44.09-26.25 44.92-25.49 45.48-24.29 46.04-23.1 46.41-21.61 46.77-20.12 46.99-18.68 47.21-17.24 47.29-15.97 47.36-14.7 47.36-13.96ZM79.98-16.11L79.98-16.11Q79.98-15.19 79.98-13.6 79.98-12.01 79.9-10.16 79.83-8.3 79.58-6.42 79.34-4.54 78.83-3.03 78.32-1.51 77.53-0.54 76.75 0.44 75.53 0.44L75.53 0.44Q74.46 0.44 73.9-0.46 73.33-1.37 73.09-2.59 72.85-3.81 72.82-5.08 72.8-6.35 72.8-7.08L72.8-7.08Q72.8-9.28 72.94-11.38 73.09-13.48 73.09-15.67L73.09-15.67Q73.09-15.92 73.09-16.55 73.09-17.19 72.99-17.82 72.9-18.46 72.68-18.95 72.46-19.43 72.02-19.43L72.02-19.43Q71.14-19.43 70.6-18.53 70.06-17.63 69.72-16.41 69.38-15.19 69.23-13.99 69.09-12.79 69.04-12.21L69.04-12.21Q68.94-11.57 68.87-10.3 68.79-9.03 68.67-7.52 68.55-6.01 68.28-4.42 68.01-2.83 67.6-1.54 67.18-0.24 66.55 0.59 65.91 1.42 64.99 1.42L64.99 1.42Q63.81 1.42 63.18 0.39 62.54-0.63 62.25-2 61.96-3.37 61.88-4.79 61.81-6.2 61.81-6.98L61.81-6.98Q61.81-7.81 61.84-8.59 61.86-9.38 61.86-10.21L61.86-10.21Q61.86-10.55 61.86-11.33 61.86-12.11 61.84-13.06 61.81-14.01 61.74-15.04 61.66-16.06 61.52-16.92 61.37-17.77 61.08-18.31 60.79-18.85 60.4-18.85L60.4-18.85Q59.76-18.85 59.22-18.04 58.69-17.24 58.3-16.14 57.91-15.04 57.69-13.96 57.47-12.89 57.47-12.4L57.47-12.4 57.47-12.11Q57.47-9.77 57.76-7.52 58.05-5.27 58.05-2.93L58.05-2.93Q58.05-1.56 57.17-0.42 56.29 0.73 54.73 0.73L54.73 0.73Q53.61 0.73 52.88-0.12 52.14-0.98 51.66-2.34 51.17-3.71 50.9-5.35 50.63-6.98 50.53-8.57 50.43-10.16 50.41-11.45 50.39-12.74 50.39-13.38L50.39-13.38Q50.39-14.11 50.36-15.53 50.34-16.94 50.41-18.6 50.48-20.26 50.68-22 50.87-23.73 51.31-25.15 51.75-26.56 52.46-27.47 53.17-28.37 54.29-28.37L54.29-28.37Q55.56-28.37 56.37-27.69 57.17-27 57.17-25.63L57.17-25.63Q57.17-25.34 57.15-25.05 57.12-24.76 57.08-24.51L57.08-24.51Q57.61-25.29 58.39-26.1 59.17-26.9 60.08-27.56 60.98-28.22 62.01-28.64 63.03-29.05 64.06-29.05L64.06-29.05Q65.03-29.05 65.82-28.52 66.6-27.98 67.18-27.17 67.77-26.37 68.16-25.44 68.55-24.51 68.7-23.68L68.7-23.68Q69.18-24.56 69.89-25.46 70.6-26.37 71.43-27.05 72.26-27.73 73.26-28.17 74.26-28.61 75.34-28.61L75.34-28.61Q76.36-28.61 77.09-27.88 77.83-27.15 78.36-26 78.9-24.85 79.19-23.41 79.49-21.97 79.68-20.58 79.88-19.19 79.93-17.99 79.98-16.8 79.98-16.11ZM103.65-8.69L103.65-8.69Q103.65-7.03 102.6-5.44 101.56-3.86 99.97-2.61 98.38-1.37 96.57-0.61 94.77 0.15 93.25 0.15L93.25 0.15Q90.67 0.15 88.64-1.15 86.61-2.44 85.25-4.44 83.88-6.45 83.17-8.86 82.46-11.28 82.46-13.57L82.46-13.57Q82.46-16.02 83.15-18.8 83.83-21.58 85.22-23.93 86.61-26.27 88.74-27.83 90.86-29.39 93.79-29.39L93.79-29.39Q95.45-29.39 96.97-28.83 98.48-28.27 99.6-27.25 100.72-26.22 101.41-24.8 102.09-23.39 102.09-21.63L102.09-21.63Q102.09-19.34 101.12-17.33 100.14-15.33 98.53-13.87 96.92-12.4 94.82-11.5 92.72-10.6 90.52-10.5L90.52-10.5Q90.72-9.08 91.67-8.45 92.62-7.81 93.94-7.81L93.94-7.81Q94.91-7.81 95.84-8.3 96.77-8.79 97.65-9.4 98.53-10.01 99.38-10.5 100.24-10.99 101.12-10.99L101.12-10.99Q102.09-10.99 102.87-10.35 103.65-9.72 103.65-8.69ZM95.74-20.65L95.74-20.65Q95.74-21.29 95.4-21.97 95.06-22.66 94.33-22.66L94.33-22.66Q93.25-22.66 92.52-22.09 91.79-21.53 91.3-20.68 90.81-19.82 90.54-18.85 90.28-17.87 90.23-17.04L90.23-17.04Q90.91-17.19 91.86-17.43 92.81-17.68 93.67-18.09 94.52-18.51 95.13-19.14 95.74-19.78 95.74-20.65ZM119.47 1.37L119.47 1.37Q118.64 1.37 118.15 0.61 117.67-0.15 117.42-1.12 117.18-2.1 117.1-3.1 117.03-4.1 117.03-4.64L117.03-4.64Q117.03-6.1 117.2-7.57 117.37-9.03 117.59-10.5 117.81-11.96 117.98-13.43 118.15-14.89 118.15-16.36L118.15-16.36Q118.15-16.94 118.11-17.63 118.06-18.31 117.89-18.92 117.71-19.53 117.32-19.92 116.93-20.31 116.3-20.31L116.3-20.31Q115.86-20.31 115.32-19.6 114.78-18.9 114.32-17.99 113.86-17.09 113.54-16.19 113.22-15.28 113.22-14.84L113.22-14.84Q113.22-13.77 113.25-12.67 113.27-11.57 113.27-10.45L113.27-10.45 113.27-7.62Q113.22-6.74 113.12-5.81 113.03-4.88 112.83-4L112.83-4Q112.69-3.13 112.39-2.32 112.1-1.51 111.64-0.9 111.17-0.29 110.54 0.1 109.9 0.49 109.02 0.49L109.02 0.49Q108.05 0.49 107.41-0.15 106.78-0.78 106.39-1.78 106-2.78 105.82-4.03 105.65-5.27 105.58-6.47 105.51-7.67 105.53-8.67 105.56-9.67 105.56-10.25L105.56-10.25 105.56-12.55Q105.56-14.4 105.48-16.21 105.41-18.02 105.41-19.82L105.41-19.82Q105.41-20.8 105.43-22.31 105.46-23.83 105.8-25.27 106.14-26.71 106.92-27.73 107.7-28.76 109.22-28.76L109.22-28.76Q109.9-28.76 110.44-28.32 110.98-27.88 111.39-27.25 111.81-26.61 112.07-25.88 112.34-25.15 112.49-24.61L112.49-24.61Q112.98-25.29 113.64-25.93 114.3-26.56 115.13-27.05 115.96-27.54 116.98-27.83 118.01-28.13 119.33-28.13L119.33-28.13Q121.82-28.13 123.21-26.93 124.6-25.73 125.26-23.95 125.92-22.17 126.06-20.12 126.21-18.07 126.21-16.41L126.21-16.41Q126.21-15.58 126.06-13.94 125.92-12.3 125.6-10.33 125.28-8.35 124.75-6.27 124.21-4.2 123.48-2.49 122.74-0.78 121.74 0.29 120.74 1.37 119.47 1.37Z" fill="#4a596d" data-fill-palette-color="primary"/>
                                                                <path d="M161.02-28.86L161.02-28.86Q161.02-25.49 159.36-22.73 157.7-19.97 154.92-18.12L154.92-18.12Q156.38-17.82 157.46-17.11 158.53-16.41 159.24-15.38 159.95-14.36 160.31-13.06 160.68-11.77 160.68-10.35L160.68-10.35Q160.68-7.57 159.39-5.49 158.09-3.42 156.04-2.08 153.99-0.73 151.48-0.07 148.96 0.59 146.47 0.59L146.47 0.59Q145.1 0.59 143.74 0.39 142.37 0.2 141.15-0.29L141.15-0.29Q140.71-0.44 140.42-1.49 140.12-2.54 139.95-4.05 139.78-5.57 139.68-7.32 139.59-9.08 139.54-10.69 139.49-12.3 139.49-13.53 139.49-14.75 139.49-15.23L139.49-15.23Q139.49-16.94 139.49-18.68 139.49-20.41 139.59-22.12L139.59-22.12Q139.59-22.56 139.61-23.49 139.64-24.41 139.66-25.56 139.68-26.71 139.76-27.98 139.83-29.25 139.95-30.35 140.07-31.45 140.29-32.23 140.51-33.01 140.81-33.2L140.81-33.2Q141.93-33.94 143.3-34.59 144.66-35.25 146.13-35.74 147.59-36.23 149.06-36.52 150.52-36.82 151.84-36.82L151.84-36.82Q153.65-36.82 155.33-36.3 157.02-35.79 158.26-34.77 159.51-33.74 160.27-32.25 161.02-30.76 161.02-28.86ZM152.92-26.27L152.92-26.27Q152.92-27.1 152.4-27.49 151.89-27.88 151.06-27.88L151.06-27.88Q150.38-27.88 149.62-27.59 148.86-27.29 148.33-26.81L148.33-26.81Q148.18-26.66 148.06-25.98 147.94-25.29 147.86-24.44 147.79-23.58 147.77-22.83 147.74-22.07 147.74-21.83L147.74-21.83Q147.74-21.73 147.74-21.51 147.74-21.29 147.77-21.04 147.79-20.8 147.84-20.61 147.89-20.41 147.98-20.41L147.98-20.41Q148.81-20.41 149.69-21.02 150.57-21.63 151.28-22.53 151.99-23.44 152.45-24.46 152.92-25.49 152.92-26.27ZM152.72-12.16L152.72-12.16Q152.72-12.99 152.14-13.33 151.55-13.67 150.82-13.67L150.82-13.67Q150.13-13.67 149.38-13.35 148.62-13.04 148.13-12.6L148.13-12.6Q147.98-12.5 147.91-12.11 147.84-11.72 147.81-11.25 147.79-10.79 147.77-10.38 147.74-9.96 147.74-9.81L147.74-9.81Q147.74-9.72 147.74-9.42 147.74-9.13 147.77-8.81 147.79-8.5 147.86-8.23 147.94-7.96 148.03-7.96L148.03-7.96Q148.72-7.96 149.55-8.35 150.38-8.74 151.09-9.33 151.79-9.91 152.26-10.67 152.72-11.43 152.72-12.16ZM183.97-6.88L183.97-6.88Q183.97-6.01 183.9-4.59 183.82-3.17 183.48-1.83 183.14-0.49 182.41 0.49 181.67 1.46 180.36 1.46L180.36 1.46Q178.55 1.46 177.57 0.29 176.6-0.88 176.64-2.64L176.64-2.64Q175.08-1.27 173.1-0.49 171.13 0.29 169.08 0.29L169.08 0.29Q167.66 0.29 166.39-0.39 165.12-1.07 164.14-2.15 163.17-3.22 162.58-4.57 162-5.91 162-7.23L162-7.23Q162-9.57 163.44-11.33 164.88-13.09 166.98-14.33 169.08-15.58 171.44-16.31 173.81-17.04 175.67-17.29L175.67-17.29Q175.67-17.53 175.69-17.72 175.72-17.92 175.72-18.16L175.72-18.16Q175.72-19.68 174.89-20.61 174.06-21.53 172.54-21.53L172.54-21.53Q171.32-21.53 170.44-21.12 169.56-20.7 168.78-20.19 168-19.68 167.22-19.26 166.44-18.85 165.46-18.85L165.46-18.85Q164.39-18.85 163.63-19.53 162.87-20.21 162.87-21.29L162.87-21.29Q162.87-22.9 163.83-24.22 164.78-25.54 166.22-26.44 167.66-27.34 169.34-27.86 171.03-28.37 172.45-28.37L172.45-28.37Q173.76-28.37 175.08-28.05 176.4-27.73 177.57-27.08 178.74-26.42 179.7-25.46 180.65-24.51 181.23-23.24L181.23-23.24Q182.11-21.44 182.65-19.41 183.19-17.38 183.48-15.26 183.77-13.13 183.87-11.01 183.97-8.89 183.97-6.88ZM176.16-8.45L176.16-8.45 176.01-11.77Q175.91-11.77 175.81-11.79 175.72-11.82 175.62-11.82L175.62-11.82Q174.98-11.82 174.03-11.5 173.08-11.18 172.2-10.62 171.32-10.06 170.71-9.38 170.1-8.69 170.1-7.96L170.1-7.96Q170.1-7.28 170.59-7.03 171.08-6.79 171.71-6.79L171.71-6.79Q172.79-6.79 174.01-7.35 175.23-7.91 176.16-8.45ZM208.82-4.59L208.82-4.59Q208.82-3.61 208.01-2.88 207.21-2.15 205.96-1.56 204.72-0.98 203.13-0.59 201.54-0.2 200.01 0.05 198.47 0.29 197.1 0.42 195.73 0.54 194.9 0.54L194.9 0.54Q194.07 0.54 192.58 0.49 191.1 0.44 189.63 0.12 188.17-0.2 187.09-0.9 186.02-1.61 186.02-2.88L186.02-2.88Q186.02-3.86 186.7-5.27 187.38-6.69 188.46-8.35 189.53-10.01 190.85-11.74 192.17-13.48 193.44-15.09 194.71-16.7 195.83-18.04 196.95-19.38 197.59-20.26L197.59-20.26Q196.91-20.12 195.86-19.85 194.81-19.58 193.68-19.34 192.56-19.09 191.51-18.92 190.46-18.75 189.73-18.75L189.73-18.75Q189.14-18.75 188.41-18.97 187.68-19.19 187.02-19.58 186.36-19.97 185.89-20.51 185.43-21.04 185.43-21.73L185.43-21.73Q185.43-22.61 186.21-23.36 186.99-24.12 188.26-24.73 189.53-25.34 191.1-25.81 192.66-26.27 194.17-26.59 195.68-26.9 197.05-27.05 198.42-27.2 199.25-27.2L199.25-27.2Q200.18-27.2 201.5-27 202.81-26.81 204.06-26.32 205.3-25.83 206.18-25 207.06-24.17 207.06-22.9L207.06-22.9Q207.06-22.51 206.99-22.19 206.92-21.88 206.82-21.48L206.82-21.48Q206.72-21.14 205.96-19.95 205.21-18.75 204.11-17.11 203.01-15.48 201.72-13.6 200.42-11.72 199.25-10.06 198.08-8.4 197.2-7.13 196.32-5.86 196.03-5.42L196.03-5.42Q198.03-5.96 200.1-6.32 202.18-6.69 204.23-6.69L204.23-6.69Q204.72-6.69 205.5-6.64 206.28-6.59 207.01-6.37 207.75-6.15 208.28-5.74 208.82-5.32 208.82-4.59ZM230.55-6.88L230.55-6.88Q230.55-6.01 230.47-4.59 230.4-3.17 230.06-1.83 229.72-0.49 228.98 0.49 228.25 1.46 226.93 1.46L226.93 1.46Q225.13 1.46 224.15 0.29 223.17-0.88 223.22-2.64L223.22-2.64Q221.66-1.27 219.68-0.49 217.7 0.29 215.65 0.29L215.65 0.29Q214.24 0.29 212.97-0.39 211.7-1.07 210.72-2.15 209.74-3.22 209.16-4.57 208.57-5.91 208.57-7.23L208.57-7.23Q208.57-9.57 210.01-11.33 211.45-13.09 213.55-14.33 215.65-15.58 218.02-16.31 220.39-17.04 222.24-17.29L222.24-17.29Q222.24-17.53 222.27-17.72 222.29-17.92 222.29-18.16L222.29-18.16Q222.29-19.68 221.46-20.61 220.63-21.53 219.12-21.53L219.12-21.53Q217.9-21.53 217.02-21.12 216.14-20.7 215.36-20.19 214.58-19.68 213.8-19.26 213.02-18.85 212.04-18.85L212.04-18.85Q210.97-18.85 210.21-19.53 209.45-20.21 209.45-21.29L209.45-21.29Q209.45-22.9 210.4-24.22 211.36-25.54 212.8-26.44 214.24-27.34 215.92-27.86 217.61-28.37 219.02-28.37L219.02-28.37Q220.34-28.37 221.66-28.05 222.98-27.73 224.15-27.08 225.32-26.42 226.27-25.46 227.23-24.51 227.81-23.24L227.81-23.24Q228.69-21.44 229.23-19.41 229.76-17.38 230.06-15.26 230.35-13.13 230.45-11.01 230.55-8.89 230.55-6.88ZM222.73-8.45L222.73-8.45 222.59-11.77Q222.49-11.77 222.39-11.79 222.29-11.82 222.2-11.82L222.2-11.82Q221.56-11.82 220.61-11.5 219.66-11.18 218.78-10.62 217.9-10.06 217.29-9.38 216.68-8.69 216.68-7.96L216.68-7.96Q216.68-7.28 217.17-7.03 217.66-6.79 218.29-6.79L218.29-6.79Q219.36-6.79 220.58-7.35 221.81-7.91 222.73-8.45ZM250.42-18.26L250.42-18.26Q249.73-18.21 249.24-18.38 248.76-18.55 248.27-18.75L248.27-18.75Q247.83-18.95 247.39-19.12 246.95-19.29 246.41-19.24L246.41-19.24Q245.44-19.19 244.68-18.7 243.92-18.21 243.31-17.48 242.7-16.75 242.26-15.84 241.82-14.94 241.58-14.06L241.58-14.06Q241.43-13.48 241.36-12.28 241.29-11.08 241.29-9.72L241.29-9.72Q241.24-8.3 241.24-7.03 241.24-5.76 241.14-5.03L241.14-5.03Q241.09-4.25 240.89-3.2 240.7-2.15 240.28-1.22 239.87-0.29 239.19 0.34 238.5 0.98 237.43 0.98L237.43 0.98Q236.6 0.98 235.99 0.49 235.38 0 234.96-0.81 234.55-1.61 234.28-2.69 234.01-3.76 233.86-4.88L233.86-4.88Q233.72-6.05 233.64-7.23 233.57-8.4 233.55-9.45 233.52-10.5 233.55-11.38 233.57-12.26 233.57-12.79L233.57-12.79Q233.52-14.5 233.4-16.24 233.28-17.97 233.28-19.68L233.28-19.68Q233.28-20.75 233.38-22.07 233.47-23.39 233.91-24.54 234.35-25.68 235.21-26.46 236.06-27.25 237.57-27.25L237.57-27.25Q238.4-27.25 238.99-26.71 239.58-26.17 239.94-25.39 240.31-24.61 240.5-23.73 240.7-22.85 240.75-22.12L240.75-22.12Q241.92-24.02 243.39-25.22 244.85-26.42 247.19-26.51L247.19-26.51Q248.37-26.56 249.51-26.29 250.66-26.03 251.61-25.42 252.56-24.8 253.18-23.83 253.79-22.85 253.83-21.53L253.83-21.53Q253.93-19.97 252.91-19.14 251.88-18.31 250.42-18.26Z" fill="#aab7c0" data-fill-palette-color="secondary"/>
                                                            </g>
                                                        </svg>
                                                    </g>
                                                </svg>
                                            </g>
                                        </svg>
                                    </g>
                                </svg>
                            </g>
                            <g>
                                <svg viewBox="0 0 96.64466593251034 82.50420200291296" height="82.50420200291296" width="96.64466593251034">
                                    <g>
                                        <svg xmlns="http://www.w3.org/2000/svg" version="1.1" x="0" y="0" viewBox="10.655 16.413 78.68700783411295 67.174" enable-background="new 0 0 100 100" height="82.50420200291296" width="96.64466593251034" class="icon-icon-0" data-fill-palette-color="accent" id="icon-0">
                                            <path d="M87.426 16.413H12.574c-1.06 0-1.919 0.859-1.919 1.919v2.879c0 1.061 0.859 1.919 1.919 1.919h0.959v49.901 8.637c0 1.06 0.859 1.919 1.919 1.919h25.91 17.273 25.91c1.06 0 1.919-0.859 1.919-1.919v-8.637V23.13h0.959c1.06 0 1.919-0.858 1.919-1.919v-2.879C89.345 17.272 88.486 16.413 87.426 16.413zM58.637 50.959H41.363c-1.06 0-1.919 0.859-1.919 1.919v18.233H17.373V38.481c0.739 0.31 1.549 0.483 2.398 0.483 1.675 0 3.197-0.663 4.319-1.74 1.121 1.078 2.644 1.74 4.318 1.74 1.675 0 3.198-0.663 4.319-1.74 1.121 1.078 2.644 1.74 4.318 1.74s3.197-0.663 4.318-1.74c1.122 1.078 2.644 1.74 4.319 1.74 1.674 0 3.196-0.663 4.318-1.74 1.122 1.078 2.644 1.74 4.318 1.74 1.675 0 3.197-0.663 4.319-1.74 1.121 1.078 2.644 1.74 4.318 1.74s3.197-0.663 4.318-1.74c1.121 1.078 2.644 1.74 4.319 1.74 1.674 0 3.197-0.663 4.318-1.74 1.122 1.078 2.644 1.74 4.319 1.74 0.85 0 1.659-0.173 2.398-0.483v32.631H60.556V52.879C60.556 51.819 59.697 50.959 58.637 50.959zM65.354 23.13v9.597c0 1.323-1.077 2.399-2.399 2.399s-2.399-1.076-2.399-2.399V23.13H65.354zM56.717 23.13v9.597c0 1.323-1.076 2.399-2.399 2.399-1.322 0-2.398-1.076-2.398-2.399V23.13H56.717zM48.081 23.13v9.597c0 1.323-1.076 2.399-2.398 2.399-1.323 0-2.399-1.076-2.399-2.399V23.13H48.081zM39.444 23.13v9.597c0 1.323-1.076 2.399-2.399 2.399s-2.399-1.076-2.399-2.399V23.13H39.444zM30.808 23.13v9.597c0 1.323-1.077 2.399-2.4 2.399-1.322 0-2.398-1.076-2.398-2.399V23.13H30.808zM73.991 32.727c0 1.323-1.076 2.399-2.398 2.399-1.323 0-2.4-1.076-2.4-2.399V23.13h4.798V32.727zM22.17 23.13v9.597c0 1.323-1.077 2.399-2.399 2.399-1.322 0-2.398-1.076-2.398-2.399V23.13H22.17zM17.373 74.951h22.071v4.798H17.373V74.951zM43.283 73.031V54.798h13.435v18.233 6.717H43.283V73.031zM82.627 79.749H60.556v-4.798h22.071V79.749zM82.627 32.727c0 1.323-1.076 2.399-2.398 2.399-1.323 0-2.399-1.076-2.399-2.399V23.13h4.798V32.727z" fill="#4a596d" data-fill-palette-color="accent"/>
                                        </svg>
                                    </g>
                                </svg>
                            </g>
                        </svg>
                    </g>
                </svg>
                <rect width="395.52" height="64.4573501696075" fill="none" stroke="none" visibility="hidden"/>
            </g>
        </svg>
    </g>
</svg>